<svg xmlns="http://www.w3.org/2000/svg" width="52.4" height="41.1" viewBox="0 0 52.4 41.1"><path fill="#212121" d="M23.6 31.8c0 2.5-1 4.7-3 6.6-2 1.9-4.4 2.8-7.1 2.8-4.3 0-7.6-1.4-9.9-4.3C1.2 34 0 30.1 0 25c0-4.7 2-9.4 6-14.2C10 6 14.8 2.4 20.4 0L23 4.2c-4.4 2.1-7.9 4.6-10.4 7.5C10 14.5 8.5 18 8.1 22h3.3c2.4 0 4.4.3 5.9.8s2.8 1.3 3.7 2.3c.9.9 1.5 2 1.9 3.1.5 1.2.7 2.3.7 3.6zm28.8 0c0 2.5-1 4.7-3 6.6s-4.4 2.8-7.1 2.8c-4.3 0-7.6-1.4-9.9-4.3C30 34 28.9 30.1 28.9 25c0-4.7 2-9.4 6-14.2C38.9 6 43.7 2.4 49.3 0l2.6 4.2c-4.4 2.1-7.9 4.6-10.4 7.5-2.5 2.9-4 6.3-4.4 10.4h3.3c2.4 0 4.4.3 5.9.8s2.8 1.3 3.7 2.3c.9.9 1.5 2 1.9 3.1.4 1.1.5 2.2.5 3.5z"/></svg>